<svg xmlns="http://www.w3.org/2000/svg" viewBox="0 0 24 24" aria-hidden="true">
  <title>Google</title>
  <path fill="#EA4335" d="M12 5.09c1.67 0 3.18.58 4.37 1.54l2.6-2.6C17.44 2.5 14.89 1.5 12 1.5 7.73 1.5 3.99 3.9 2.25 7.59l3.64 2.83C6.7 7.64 9.13 5.09 12 5.09z"/>
  <path fill="#FBBC05" d="M21.82 12.28c0-.79-.07-1.36-.2-1.94H12v3.7h5.63c-.24 1.48-1.52 3.44-3.63 4.45l2.8 2.17c3.24-2.09 5.02-5.41 5.02-8.38z"/>
  <path fill="#34A853" d="M6.02 13.17c-.3-.9-.47-1.87-.47-2.92s.17-2.02.47-2.92L2.38 4.5C1.48 6.34 1 8.38 1 10.25c0 1.87.48 3.91 1.38 5.75l3.64-2.83z"/>
  <path fill="#4285F4" d="M12 22.5c2.89 0 5.44-.99 7.44-2.67l-2.8-2.17c-1.06.57-2.44.97-4.64.97-3.49 0-6.44-2.35-7.49-5.46l-3.64 2.83C3.99 20.1 7.73 22.5 12 22.5z"/>
</svg>