<svg xmlns="http://www.w3.org/2000/svg" xmlns:xlink="http://www.w3.org/1999/xlink" width="500" zoomAndPan="magnify" viewBox="0 0 375 374.999991" height="500" preserveAspectRatio="xMidYMid meet" version="1.0"><defs><g/><clipPath id="a74f051c27"><path d="M 87 75.3125 L 286 75.3125 L 286 246.3125 L 87 246.3125 Z M 87 75.3125 " clip-rule="nonzero"/></clipPath><clipPath id="1e6736e46b"><path d="M 275 89 L 306.597656 89 L 306.597656 126 L 275 126 Z M 275 89 " clip-rule="nonzero"/></clipPath><clipPath id="a75bc9481c"><rect x="0" width="251" y="0" height="29"/></clipPath><clipPath id="5da0cc8e1a"><path d="M 88 75.3125 L 287 75.3125 L 287 246.3125 L 88 246.3125 Z M 88 75.3125 " clip-rule="nonzero"/></clipPath><clipPath id="8a7d6a7134"><path d="M 276 89 L 307.914062 89 L 307.914062 126 L 276 126 Z M 276 89 " clip-rule="nonzero"/></clipPath><clipPath id="6f30107081"><path d="M 67.164062 89 L 99 89 L 99 126 L 67.164062 126 Z M 67.164062 89 " clip-rule="nonzero"/></clipPath></defs><path fill="#ffffff" d="M 202.484375 228.160156 C 202.464844 228.1875 202.445312 228.214844 202.484375 228.160156 Z M 202.484375 228.160156 " fill-opacity="1" fill-rule="nonzero"/><path fill="#ffffff" d="M 169.882812 228.160156 C 169.917969 228.214844 169.898438 228.1875 169.882812 228.160156 Z M 169.882812 228.160156 " fill-opacity="1" fill-rule="nonzero"/><g clip-path="url(#a74f051c27)"><path fill="#ffffff" d="M 236.40625 151.621094 C 253.1875 139.234375 272 127.945312 281.21875 108.21875 C 286.105469 97.765625 287.527344 84.117188 278.699219 75.3125 C 284.242188 105.488281 259.101562 128.5 234.578125 140.933594 C 212.152344 153.019531 190.210938 163.746094 189.488281 192.765625 C 189.046875 202.679688 189.960938 212.429688 193.949219 221.6875 C 193.582031 228.253906 189.71875 234.390625 186.183594 240.066406 C 182.648438 234.394531 178.785156 228.253906 178.417969 221.6875 C 182.402344 212.429688 183.316406 202.679688 182.878906 192.765625 C 182.15625 163.75 160.214844 153.019531 137.785156 140.933594 C 113.265625 128.5 88.121094 105.488281 93.667969 75.3125 C 84.839844 84.117188 86.261719 97.765625 91.148438 108.21875 C 100.367188 127.941406 119.179688 139.230469 135.960938 151.621094 C 157.277344 164.644531 182.578125 206.332031 155.472656 222.691406 C 182.296875 224.242188 173.351562 179.164062 161.390625 165.140625 C 159.492188 162.554688 157.347656 160.152344 155.074219 157.375 C 179.417969 171.066406 183.941406 205.546875 169.882812 228.15625 C 171.4375 227.382812 173.09375 226.78125 174.851562 225.90625 C 177.042969 233.550781 181.113281 240.210938 186.183594 246.480469 C 191.253906 240.210938 195.324219 233.550781 197.515625 225.90625 C 199.273438 226.78125 200.929688 227.382812 202.484375 228.15625 C 188.421875 205.546875 192.945312 171.066406 217.289062 157.375 C 215.015625 160.15625 212.871094 162.558594 210.976562 165.140625 C 199.015625 179.164062 190.070312 224.242188 216.894531 222.691406 C 189.789062 206.335938 215.089844 164.644531 236.40625 151.621094 Z M 236.40625 151.621094 " fill-opacity="1" fill-rule="nonzero"/></g><path fill="#ffffff" d="M 233.140625 158.273438 C 231.125 158.230469 226.945312 162.617188 225.117188 164.644531 C 247.417969 174.542969 281.054688 175.558594 295.054688 151.976562 C 276.109375 161.898438 253.753906 159.335938 233.140625 158.273438 Z M 233.140625 158.273438 " fill-opacity="1" fill-rule="nonzero"/><path fill="#ffffff" d="M 147.25 164.644531 C 145.417969 162.617188 141.238281 158.230469 139.226562 158.273438 C 118.609375 159.335938 96.257812 161.894531 77.3125 151.976562 C 91.3125 175.558594 124.949219 174.542969 147.25 164.644531 Z M 147.25 164.644531 " fill-opacity="1" fill-rule="nonzero"/><path fill="#ffffff" d="M 237.898438 154.332031 C 250.636719 154.742188 264.019531 156.289062 276.265625 151.96875 C 285.171875 148.511719 294.980469 143.070312 298.207031 133.46875 C 285.285156 143.640625 268.136719 142.582031 252.816406 144.238281 C 247.761719 147.441406 242.898438 151.035156 237.898438 154.332031 Z M 237.898438 154.332031 " fill-opacity="1" fill-rule="nonzero"/><path fill="#ffffff" d="M 96.097656 151.96875 C 108.34375 156.285156 121.726562 154.742188 134.464844 154.328125 C 129.464844 151.035156 124.605469 147.441406 119.546875 144.234375 C 104.226562 142.578125 87.078125 143.636719 74.15625 133.464844 C 77.382812 143.070312 87.191406 148.511719 96.097656 151.96875 Z M 96.097656 151.96875 " fill-opacity="1" fill-rule="nonzero"/><path fill="#ffffff" d="M 216.078125 177.675781 C 215.8125 178.570312 215.988281 179.53125 216.511719 180.300781 C 218.75 183.570312 220.9375 186.898438 223.472656 189.929688 C 232.894531 201.789062 250.707031 208.867188 263.867188 198.171875 C 245.875 194.96875 218.105469 174.058594 218.105469 174.058594 C 218.105469 174.058594 216.609375 175.894531 216.078125 177.675781 Z M 216.078125 177.675781 " fill-opacity="1" fill-rule="nonzero"/><path fill="#ffffff" d="M 148.894531 189.933594 C 151.429688 186.902344 153.613281 183.570312 155.855469 180.300781 C 156.382812 179.535156 156.554688 178.570312 156.289062 177.679688 C 155.757812 175.894531 154.257812 174.0625 154.257812 174.0625 C 154.257812 174.0625 126.488281 194.972656 108.496094 198.175781 C 121.660156 208.871094 139.472656 201.792969 148.894531 189.933594 Z M 148.894531 189.933594 " fill-opacity="1" fill-rule="nonzero"/><path fill="#ffffff" d="M 225.808594 167.75 C 223.703125 166.273438 223.949219 166.238281 222.121094 168.457031 C 219.460938 171.6875 219.535156 171.679688 222.699219 174.511719 C 235.851562 186.296875 257.347656 192.785156 271.683594 179.5625 C 255.5 179.921875 238.984375 176.992188 225.808594 167.75 Z M 225.808594 167.75 " fill-opacity="1" fill-rule="nonzero"/><path fill="#ffffff" d="M 149.664062 174.507812 C 152.828125 171.675781 152.902344 171.683594 150.242188 168.457031 C 148.414062 166.238281 148.660156 166.273438 146.554688 167.75 C 133.378906 176.992188 116.863281 179.917969 100.679688 179.558594 C 115.015625 192.785156 136.511719 186.292969 149.664062 174.507812 Z M 149.664062 174.507812 " fill-opacity="1" fill-rule="nonzero"/><path fill="#ffffff" d="M 258.972656 139.917969 C 277.082031 140.519531 302.113281 133.714844 303.4375 112.226562 C 294.117188 120.941406 283.6875 127.867188 271.195312 131.019531 C 266.714844 133.230469 263.183594 137.210938 258.972656 139.917969 Z M 258.972656 139.917969 " fill-opacity="1" fill-rule="nonzero"/><path fill="#ffffff" d="M 113.394531 139.917969 C 109.183594 137.210938 105.652344 133.230469 101.171875 131.019531 C 88.679688 127.867188 78.25 120.941406 68.929688 112.226562 C 70.253906 133.714844 95.28125 140.515625 113.394531 139.917969 Z M 113.394531 139.917969 " fill-opacity="1" fill-rule="nonzero"/><path fill="#ffffff" d="M 258.972656 139.917969 C 258.953125 139.871094 258.960938 139.894531 258.972656 139.917969 Z M 258.972656 139.917969 " fill-opacity="1" fill-rule="nonzero"/><path fill="#ffffff" d="M 113.394531 139.917969 C 113.402344 139.894531 113.410156 139.871094 113.394531 139.917969 Z M 113.394531 139.917969 " fill-opacity="1" fill-rule="nonzero"/><path fill="#ffffff" d="M 214.019531 181.53125 C 213.179688 183.90625 212.066406 191.851562 219.199219 201.222656 C 224 207.53125 232.660156 212.195312 240.496094 208.460938 C 228.394531 202.691406 220.8125 192.636719 214.019531 181.53125 Z M 214.019531 181.53125 " fill-opacity="1" fill-rule="nonzero"/><path fill="#ffffff" d="M 153.171875 201.222656 C 160.304688 191.851562 159.1875 183.902344 158.347656 181.53125 C 151.558594 192.636719 143.96875 202.691406 131.875 208.460938 C 139.707031 212.195312 148.367188 207.53125 153.171875 201.222656 Z M 153.171875 201.222656 " fill-opacity="1" fill-rule="nonzero"/><g clip-path="url(#1e6736e46b)"><path fill="#ffffff" d="M 275.601562 125.523438 C 290.273438 121.535156 306.0625 106.765625 306.324219 89.324219 C 301.910156 100.734375 293.769531 104.949219 285.136719 112 C 282.511719 116.863281 279.347656 121.511719 275.601562 125.523438 Z M 275.601562 125.523438 " fill-opacity="1" fill-rule="nonzero"/></g><path fill="#ffffff" d="M 96.765625 125.523438 C 93.019531 121.511719 89.851562 116.863281 87.230469 112 C 78.597656 104.949219 70.457031 100.734375 66.042969 89.324219 C 66.300781 106.765625 82.089844 121.535156 96.765625 125.523438 Z M 96.765625 125.523438 " fill-opacity="1" fill-rule="nonzero"/><path fill="#ffffff" d="M 210 190.457031 C 205.15625 201.226562 215.015625 216.59375 227.378906 214.933594 C 217.574219 209.347656 213.902344 199.914062 210 190.457031 Z M 210 190.457031 " fill-opacity="1" fill-rule="nonzero"/><path fill="#ffffff" d="M 162.367188 190.457031 C 158.46875 199.914062 154.792969 209.347656 144.992188 214.933594 C 157.351562 216.59375 167.214844 201.222656 162.367188 190.457031 Z M 162.367188 190.457031 " fill-opacity="1" fill-rule="nonzero"/><g transform="matrix(1, 0, 0, 1, 73, 243)"><g clip-path="url(#a75bc9481c)"><g fill="#ffffff" fill-opacity="0.4"><g transform="translate(3.365143, 21.273397)"><g><path d="M 19.25 -0.203125 L 19.578125 -0.203125 L 19.578125 0 L 13.484375 0 L 13.484375 -0.1875 L 13.78125 -0.1875 C 14.007812 -0.195312 14.203125 -0.289062 14.359375 -0.46875 C 14.523438 -0.644531 14.597656 -0.84375 14.578125 -1.0625 L 13.78125 -8.4375 L 9.953125 -1.84375 C 9.453125 -1.007812 9.195312 -0.257812 9.1875 0.40625 L 8.984375 0.40625 L 3.765625 -8.375 L 2.96875 -1.0625 C 2.9375 -0.84375 3.003906 -0.640625 3.171875 -0.453125 C 3.335938 -0.273438 3.535156 -0.1875 3.765625 -0.1875 L 4.0625 -0.1875 L 4.0625 0 L -0.1875 0 L -0.1875 -0.203125 L 0.140625 -0.203125 C 0.523438 -0.203125 0.851562 -0.316406 1.125 -0.546875 C 1.40625 -0.773438 1.570312 -1.085938 1.625 -1.484375 L 3.3125 -14.515625 L 3.5 -14.515625 L 9.796875 -4.140625 L 15.859375 -14.515625 L 16.03125 -14.515625 L 17.765625 -1.484375 C 17.835938 -1.085938 18.007812 -0.773438 18.28125 -0.546875 C 18.5625 -0.316406 18.882812 -0.203125 19.25 -0.203125 Z M 19.25 -0.203125 "/></g></g></g><g fill="#ffffff" fill-opacity="0.4"><g transform="translate(22.738134, 21.273397)"><g><path d="M 15 -0.203125 L 15.1875 -0.203125 L 15.1875 0 L 8.703125 0 L 8.703125 -0.203125 L 8.875 -0.203125 C 9.175781 -0.203125 9.394531 -0.289062 9.53125 -0.46875 C 9.675781 -0.65625 9.75 -0.828125 9.75 -0.984375 C 9.75 -1.148438 9.71875 -1.316406 9.65625 -1.484375 L 8.65625 -3.984375 L 3.890625 -3.984375 L 2.84375 -1.484375 C 2.769531 -1.304688 2.734375 -1.140625 2.734375 -0.984375 C 2.734375 -0.828125 2.804688 -0.65625 2.953125 -0.46875 C 3.109375 -0.289062 3.335938 -0.203125 3.640625 -0.203125 L 3.796875 -0.203125 L 3.796875 0 L -0.546875 0 L -0.546875 -0.203125 L -0.375 -0.203125 C -0.0625 -0.203125 0.25 -0.296875 0.5625 -0.484375 C 0.875 -0.671875 1.132812 -0.957031 1.34375 -1.34375 L 6.03125 -11.96875 C 6.664062 -13.3125 7.003906 -14.203125 7.046875 -14.640625 L 7.234375 -14.640625 L 13.265625 -1.375 C 13.472656 -0.988281 13.734375 -0.695312 14.046875 -0.5 C 14.359375 -0.300781 14.675781 -0.203125 15 -0.203125 Z M 4.25 -4.84375 L 8.3125 -4.84375 L 6.34375 -9.84375 Z M 4.25 -4.84375 "/></g></g></g><g fill="#ffffff" fill-opacity="0.4"><g transform="translate(37.293279, 21.273397)"><g><path d="M 16.609375 -14.03125 C 16.128906 -14.03125 15.769531 -13.828125 15.53125 -13.421875 C 15.425781 -13.242188 15.363281 -13.039062 15.34375 -12.8125 L 15.34375 -2.3125 C 15.34375 -1.40625 15.40625 -0.640625 15.53125 -0.015625 L 15.59375 0.28125 L 15.40625 0.28125 L 5.140625 -9.5 L 5.140625 -1.421875 C 5.140625 -1.085938 5.257812 -0.800781 5.5 -0.5625 C 5.75 -0.320312 6.046875 -0.203125 6.390625 -0.203125 L 6.765625 -0.203125 L 6.765625 0 L 0.609375 0 L 0.609375 -0.203125 L 0.96875 -0.203125 C 1.320312 -0.203125 1.617188 -0.320312 1.859375 -0.5625 C 2.109375 -0.800781 2.234375 -1.09375 2.234375 -1.4375 L 2.234375 -12 C 2.234375 -12.882812 2.171875 -13.628906 2.046875 -14.234375 L 2.015625 -14.53125 L 2.203125 -14.53125 L 12.46875 -4.75 L 12.46875 -12.78125 C 12.445312 -13.132812 12.3125 -13.429688 12.0625 -13.671875 C 11.820312 -13.910156 11.535156 -14.03125 11.203125 -14.03125 L 10.828125 -14.03125 L 10.828125 -14.234375 L 17 -14.234375 L 17 -14.03125 Z M 16.609375 -14.03125 "/></g></g></g><g fill="#ffffff" fill-opacity="0.4"><g transform="translate(54.877356, 21.273397)"><g><path d="M 1.125 -0.203125 C 1.46875 -0.203125 1.765625 -0.328125 2.015625 -0.578125 C 2.273438 -0.828125 2.410156 -1.128906 2.421875 -1.484375 L 2.421875 -12.765625 C 2.410156 -13.117188 2.273438 -13.414062 2.015625 -13.65625 C 1.765625 -13.90625 1.46875 -14.03125 1.125 -14.03125 L 0.859375 -14.03125 L 0.859375 -14.234375 L 7.03125 -14.234375 L 7.015625 -14.03125 L 6.765625 -14.03125 C 6.410156 -14.03125 6.101562 -13.90625 5.84375 -13.65625 C 5.59375 -13.414062 5.46875 -13.117188 5.46875 -12.765625 L 5.46875 -1.484375 C 5.46875 -1.128906 5.59375 -0.828125 5.84375 -0.578125 C 6.101562 -0.328125 6.410156 -0.203125 6.765625 -0.203125 L 7.015625 -0.203125 L 7.03125 0 L 0.859375 0 L 0.859375 -0.203125 Z M 1.125 -0.203125 "/></g></g></g><g fill="#ffffff" fill-opacity="0.4"><g transform="translate(62.724131, 21.273397)"><g><path d="M 5.46875 -13.359375 L 5.46875 -7.4375 L 8.15625 -7.4375 C 8.65625 -7.445312 9.066406 -7.613281 9.390625 -7.9375 C 9.710938 -8.269531 9.875 -8.6875 9.875 -9.1875 L 9.875 -9.375 L 10.078125 -9.375 L 10.078125 -4.671875 L 9.875 -4.671875 L 9.875 -4.84375 C 9.875 -5.34375 9.710938 -5.753906 9.390625 -6.078125 C 9.078125 -6.398438 8.675781 -6.570312 8.1875 -6.59375 L 5.46875 -6.59375 L 5.46875 -1.484375 C 5.46875 -1.128906 5.59375 -0.828125 5.84375 -0.578125 C 6.101562 -0.328125 6.410156 -0.203125 6.765625 -0.203125 L 7.015625 -0.203125 L 7.03125 0 L 0.859375 0 L 0.859375 -0.203125 L 1.125 -0.203125 C 1.46875 -0.203125 1.765625 -0.328125 2.015625 -0.578125 C 2.273438 -0.828125 2.410156 -1.128906 2.421875 -1.484375 L 2.421875 -12.8125 C 2.421875 -13.28125 2.195312 -13.628906 1.75 -13.859375 C 1.5625 -13.972656 1.351562 -14.03125 1.125 -14.03125 L 0.859375 -14.03125 L 0.859375 -14.234375 L 8.640625 -14.234375 C 9.054688 -14.234375 9.515625 -14.269531 10.015625 -14.34375 C 10.523438 -14.425781 10.878906 -14.507812 11.078125 -14.59375 L 11.078125 -11.15625 L 10.875 -11.15625 L 10.875 -11.359375 C 10.875 -11.953125 10.703125 -12.425781 10.359375 -12.78125 C 10.015625 -13.144531 9.539062 -13.335938 8.9375 -13.359375 Z M 5.46875 -13.359375 "/></g></g></g><g fill="#ffffff" fill-opacity="0.4"><g transform="translate(74.819549, 21.273397)"><g><path d="M 1.125 -0.203125 C 1.46875 -0.203125 1.765625 -0.328125 2.015625 -0.578125 C 2.273438 -0.828125 2.410156 -1.128906 2.421875 -1.484375 L 2.421875 -12.8125 C 2.390625 -13.15625 2.285156 -13.410156 2.109375 -13.578125 C 1.785156 -13.878906 1.457031 -14.03125 1.125 -14.03125 L 0.859375 -14.03125 L 0.859375 -14.234375 L 8.640625 -14.234375 C 9.304688 -14.234375 9.851562 -14.28125 10.28125 -14.375 C 10.71875 -14.476562 10.984375 -14.550781 11.078125 -14.59375 L 11.078125 -11.03125 L 10.875 -11.0625 L 10.875 -11.28125 C 10.875 -12.125 10.5625 -12.722656 9.9375 -13.078125 C 9.644531 -13.242188 9.296875 -13.335938 8.890625 -13.359375 L 5.46875 -13.359375 L 5.46875 -7.4375 L 8.15625 -7.4375 C 8.65625 -7.445312 9.066406 -7.617188 9.390625 -7.953125 C 9.710938 -8.285156 9.875 -8.695312 9.875 -9.1875 L 9.875 -9.375 L 10.078125 -9.375 L 10.078125 -4.671875 L 9.875 -4.671875 L 9.875 -4.84375 C 9.875 -5.34375 9.710938 -5.753906 9.390625 -6.078125 C 9.078125 -6.398438 8.675781 -6.570312 8.1875 -6.59375 L 5.46875 -6.59375 L 5.46875 -0.875 L 8.125 -0.875 C 9.113281 -0.875 9.941406 -1.15625 10.609375 -1.71875 C 11.285156 -2.289062 11.785156 -3.097656 12.109375 -4.140625 L 12.3125 -4.140625 L 11.390625 0 L 0.859375 0 L 0.859375 -0.203125 Z M 1.125 -0.203125 "/></g></g></g><g fill="#ffffff" fill-opacity="0.4"><g transform="translate(87.646783, 21.273397)"><g><path d="M 1.015625 -1.890625 C 1.015625 -2.867188 1.222656 -3.703125 1.640625 -4.390625 L 1.828125 -4.390625 C 1.816406 -4.285156 1.8125 -4.175781 1.8125 -4.0625 C 1.8125 -3.125 2.144531 -2.304688 2.8125 -1.609375 C 3.488281 -0.910156 4.40625 -0.5625 5.5625 -0.5625 C 6.476562 -0.5625 7.1875 -0.78125 7.6875 -1.21875 C 8.195312 -1.65625 8.453125 -2.203125 8.453125 -2.859375 C 8.453125 -3.253906 8.328125 -3.609375 8.078125 -3.921875 C 7.828125 -4.234375 7.410156 -4.578125 6.828125 -4.953125 L 3.296875 -7.296875 C 1.984375 -8.179688 1.328125 -9.265625 1.328125 -10.546875 C 1.328125 -10.679688 1.335938 -10.816406 1.359375 -10.953125 C 1.441406 -12.023438 1.859375 -12.882812 2.609375 -13.53125 C 3.359375 -14.1875 4.363281 -14.515625 5.625 -14.515625 C 6.375 -14.515625 7.296875 -14.445312 8.390625 -14.3125 L 9.671875 -14.3125 L 9.40625 -11.328125 L 9.203125 -11.328125 C 9.203125 -12.023438 8.941406 -12.585938 8.421875 -13.015625 C 7.898438 -13.441406 7.207031 -13.65625 6.34375 -13.65625 C 5.28125 -13.65625 4.515625 -13.332031 4.046875 -12.6875 C 3.796875 -12.375 3.671875 -12.0625 3.671875 -11.75 C 3.671875 -11.4375 3.734375 -11.171875 3.859375 -10.953125 C 4.046875 -10.597656 4.460938 -10.21875 5.109375 -9.8125 L 8.984375 -7.296875 C 10.203125 -6.492188 10.8125 -5.453125 10.8125 -4.171875 C 10.8125 -2.734375 10.316406 -1.628906 9.328125 -0.859375 C 8.347656 -0.0976562 7.046875 0.28125 5.421875 0.28125 C 4.503906 0.28125 3.65625 0.171875 2.875 -0.046875 C 2.09375 -0.273438 1.519531 -0.578125 1.15625 -0.953125 C 1.0625 -1.210938 1.015625 -1.523438 1.015625 -1.890625 Z M 1.015625 -1.890625 "/></g></g></g><g fill="#ffffff" fill-opacity="0.4"><g transform="translate(99.396614, 21.273397)"><g><path d="M 8.3125 -13.390625 L 8.3125 -1.46875 C 8.320312 -1.113281 8.453125 -0.8125 8.703125 -0.5625 C 8.960938 -0.320312 9.265625 -0.203125 9.609375 -0.203125 L 9.859375 -0.203125 L 9.875 0 L 3.703125 0 L 3.703125 -0.203125 L 3.96875 -0.203125 C 4.300781 -0.203125 4.59375 -0.320312 4.84375 -0.5625 C 5.09375 -0.8125 5.234375 -1.101562 5.265625 -1.4375 L 5.265625 -13.390625 L 2.515625 -13.390625 C 1.890625 -13.378906 1.394531 -13.179688 1.03125 -12.796875 C 0.664062 -12.421875 0.484375 -11.929688 0.484375 -11.328125 L 0.484375 -11.078125 L 0.28125 -11.078125 L 0.28125 -14.609375 C 0.84375 -14.378906 1.644531 -14.257812 2.6875 -14.25 L 10.875 -14.25 C 11.289062 -14.25 11.742188 -14.289062 12.234375 -14.375 C 12.734375 -14.457031 13.082031 -14.535156 13.28125 -14.609375 L 13.28125 -11.078125 L 13.078125 -11.078125 L 13.078125 -11.328125 C 13.078125 -12.160156 12.753906 -12.753906 12.109375 -13.109375 C 11.816406 -13.285156 11.457031 -13.378906 11.03125 -13.390625 Z M 8.3125 -13.390625 "/></g></g></g><g fill="#ffffff" fill-opacity="0.4"><g transform="translate(112.935342, 21.273397)"><g/></g></g><g fill="#ffffff" fill-opacity="0.4"><g transform="translate(118.017448, 21.273397)"><g><path d="M 20.34375 -14.03125 L 20.15625 -14.03125 C 19.820312 -14.03125 19.476562 -13.925781 19.125 -13.71875 C 18.78125 -13.519531 18.535156 -13.226562 18.390625 -12.84375 L 14.984375 -1.890625 C 14.742188 -1.140625 14.625 -0.445312 14.625 0.1875 C 14.625 0.25 14.625 0.304688 14.625 0.359375 L 14.421875 0.359375 L 10 -9.453125 L 6.78125 -1.890625 C 6.46875 -1.109375 6.304688 -0.359375 6.296875 0.359375 L 6.09375 0.359375 L 1.234375 -12.84375 C 1.054688 -13.238281 0.804688 -13.535156 0.484375 -13.734375 C 0.160156 -13.929688 -0.171875 -14.03125 -0.515625 -14.03125 L -0.671875 -14.03125 L -0.671875 -14.234375 L 5.53125 -14.234375 L 5.53125 -14.03125 L 5.34375 -14.03125 C 5.0625 -14.03125 4.847656 -13.9375 4.703125 -13.75 C 4.554688 -13.570312 4.484375 -13.398438 4.484375 -13.234375 C 4.484375 -13.066406 4.507812 -12.910156 4.5625 -12.765625 L 7.0625 -5.6875 L 10.75 -14.5625 L 10.9375 -14.53125 L 14.984375 -5.609375 L 17.015625 -12.765625 C 17.054688 -12.910156 17.078125 -13.066406 17.078125 -13.234375 C 17.078125 -13.398438 17.007812 -13.570312 16.875 -13.75 C 16.75 -13.9375 16.535156 -14.03125 16.234375 -14.03125 L 16.046875 -14.03125 L 16.046875 -14.234375 L 20.34375 -14.234375 Z M 20.34375 -14.03125 "/></g></g></g><g fill="#ffffff" fill-opacity="0.4"><g transform="translate(137.756347, 21.273397)"><g><path d="M 1.125 -0.203125 C 1.46875 -0.203125 1.765625 -0.328125 2.015625 -0.578125 C 2.273438 -0.828125 2.410156 -1.128906 2.421875 -1.484375 L 2.421875 -12.765625 C 2.410156 -13.117188 2.273438 -13.414062 2.015625 -13.65625 C 1.765625 -13.90625 1.46875 -14.03125 1.125 -14.03125 L 0.859375 -14.03125 L 0.859375 -14.234375 L 7.03125 -14.234375 L 7.015625 -14.03125 L 6.765625 -14.03125 C 6.410156 -14.03125 6.101562 -13.90625 5.84375 -13.65625 C 5.59375 -13.414062 5.46875 -13.117188 5.46875 -12.765625 L 5.46875 -1.484375 C 5.46875 -1.128906 5.59375 -0.828125 5.84375 -0.578125 C 6.101562 -0.328125 6.410156 -0.203125 6.765625 -0.203125 L 7.015625 -0.203125 L 7.03125 0 L 0.859375 0 L 0.859375 -0.203125 Z M 1.125 -0.203125 "/></g></g></g><g fill="#ffffff" fill-opacity="0.4"><g transform="translate(145.603122, 21.273397)"><g><path d="M 1.015625 -1.890625 C 1.015625 -2.867188 1.222656 -3.703125 1.640625 -4.390625 L 1.828125 -4.390625 C 1.816406 -4.285156 1.8125 -4.175781 1.8125 -4.0625 C 1.8125 -3.125 2.144531 -2.304688 2.8125 -1.609375 C 3.488281 -0.910156 4.40625 -0.5625 5.5625 -0.5625 C 6.476562 -0.5625 7.1875 -0.78125 7.6875 -1.21875 C 8.195312 -1.65625 8.453125 -2.203125 8.453125 -2.859375 C 8.453125 -3.253906 8.328125 -3.609375 8.078125 -3.921875 C 7.828125 -4.234375 7.410156 -4.578125 6.828125 -4.953125 L 3.296875 -7.296875 C 1.984375 -8.179688 1.328125 -9.265625 1.328125 -10.546875 C 1.328125 -10.679688 1.335938 -10.816406 1.359375 -10.953125 C 1.441406 -12.023438 1.859375 -12.882812 2.609375 -13.53125 C 3.359375 -14.1875 4.363281 -14.515625 5.625 -14.515625 C 6.375 -14.515625 7.296875 -14.445312 8.390625 -14.3125 L 9.671875 -14.3125 L 9.40625 -11.328125 L 9.203125 -11.328125 C 9.203125 -12.023438 8.941406 -12.585938 8.421875 -13.015625 C 7.898438 -13.441406 7.207031 -13.65625 6.34375 -13.65625 C 5.28125 -13.65625 4.515625 -13.332031 4.046875 -12.6875 C 3.796875 -12.375 3.671875 -12.0625 3.671875 -11.75 C 3.671875 -11.4375 3.734375 -11.171875 3.859375 -10.953125 C 4.046875 -10.597656 4.460938 -10.21875 5.109375 -9.8125 L 8.984375 -7.296875 C 10.203125 -6.492188 10.8125 -5.453125 10.8125 -4.171875 C 10.8125 -2.734375 10.316406 -1.628906 9.328125 -0.859375 C 8.347656 -0.0976562 7.046875 0.28125 5.421875 0.28125 C 4.503906 0.28125 3.65625 0.171875 2.875 -0.046875 C 2.09375 -0.273438 1.519531 -0.578125 1.15625 -0.953125 C 1.0625 -1.210938 1.015625 -1.523438 1.015625 -1.890625 Z M 1.015625 -1.890625 "/></g></g></g><g fill="#ffffff" fill-opacity="0.4"><g transform="translate(157.352954, 21.273397)"><g><path d="M 10.75 -0.203125 C 11.101562 -0.203125 11.375 -0.289062 11.5625 -0.46875 C 11.875 -0.78125 12.035156 -1.113281 12.046875 -1.46875 L 12.046875 -6.640625 L 5.46875 -6.640625 L 5.46875 -1.484375 C 5.46875 -1.128906 5.59375 -0.828125 5.84375 -0.578125 C 6.101562 -0.328125 6.410156 -0.203125 6.765625 -0.203125 L 7.015625 -0.203125 L 7.03125 0 L 0.859375 0 L 0.859375 -0.203125 L 1.125 -0.203125 C 1.46875 -0.203125 1.765625 -0.328125 2.015625 -0.578125 C 2.273438 -0.828125 2.410156 -1.128906 2.421875 -1.484375 L 2.421875 -12.75 C 2.410156 -13.101562 2.273438 -13.40625 2.015625 -13.65625 C 1.765625 -13.90625 1.46875 -14.03125 1.125 -14.03125 L 0.859375 -14.03125 L 0.859375 -14.234375 L 7.03125 -14.234375 L 7.015625 -14.03125 L 6.765625 -14.03125 C 6.410156 -14.03125 6.101562 -13.90625 5.84375 -13.65625 C 5.59375 -13.40625 5.46875 -13.101562 5.46875 -12.75 L 5.46875 -7.515625 L 12.046875 -7.515625 L 12.046875 -12.75 C 12.035156 -13.101562 11.90625 -13.40625 11.65625 -13.65625 C 11.40625 -13.90625 11.101562 -14.03125 10.75 -14.03125 L 10.484375 -14.03125 L 10.484375 -14.234375 L 16.671875 -14.234375 L 16.671875 -14.03125 L 16.40625 -14.03125 C 16.050781 -14.03125 15.742188 -13.90625 15.484375 -13.65625 C 15.234375 -13.40625 15.109375 -13.101562 15.109375 -12.75 L 15.109375 -1.484375 C 15.109375 -1.128906 15.234375 -0.828125 15.484375 -0.578125 C 15.742188 -0.328125 16.050781 -0.203125 16.40625 -0.203125 L 16.671875 -0.203125 L 16.671875 0 L 10.484375 0 L 10.484375 -0.203125 Z M 10.75 -0.203125 "/></g></g></g><g fill="#ffffff" fill-opacity="0.4"><g transform="translate(174.855723, 21.273397)"><g><path d="M 1.125 -0.203125 C 1.46875 -0.203125 1.765625 -0.328125 2.015625 -0.578125 C 2.273438 -0.828125 2.410156 -1.128906 2.421875 -1.484375 L 2.421875 -12.8125 C 2.390625 -13.15625 2.285156 -13.410156 2.109375 -13.578125 C 1.785156 -13.878906 1.457031 -14.03125 1.125 -14.03125 L 0.859375 -14.03125 L 0.859375 -14.234375 L 8.640625 -14.234375 C 9.304688 -14.234375 9.851562 -14.28125 10.28125 -14.375 C 10.71875 -14.476562 10.984375 -14.550781 11.078125 -14.59375 L 11.078125 -11.03125 L 10.875 -11.0625 L 10.875 -11.28125 C 10.875 -12.125 10.5625 -12.722656 9.9375 -13.078125 C 9.644531 -13.242188 9.296875 -13.335938 8.890625 -13.359375 L 5.46875 -13.359375 L 5.46875 -7.4375 L 8.15625 -7.4375 C 8.65625 -7.445312 9.066406 -7.617188 9.390625 -7.953125 C 9.710938 -8.285156 9.875 -8.695312 9.875 -9.1875 L 9.875 -9.375 L 10.078125 -9.375 L 10.078125 -4.671875 L 9.875 -4.671875 L 9.875 -4.84375 C 9.875 -5.34375 9.710938 -5.753906 9.390625 -6.078125 C 9.078125 -6.398438 8.675781 -6.570312 8.1875 -6.59375 L 5.46875 -6.59375 L 5.46875 -0.875 L 8.125 -0.875 C 9.113281 -0.875 9.941406 -1.15625 10.609375 -1.71875 C 11.285156 -2.289062 11.785156 -3.097656 12.109375 -4.140625 L 12.3125 -4.140625 L 11.390625 0 L 0.859375 0 L 0.859375 -0.203125 Z M 1.125 -0.203125 "/></g></g></g><g fill="#ffffff" fill-opacity="0.4"><g transform="translate(187.682958, 21.273397)"><g><path d="M 1.015625 -1.890625 C 1.015625 -2.867188 1.222656 -3.703125 1.640625 -4.390625 L 1.828125 -4.390625 C 1.816406 -4.285156 1.8125 -4.175781 1.8125 -4.0625 C 1.8125 -3.125 2.144531 -2.304688 2.8125 -1.609375 C 3.488281 -0.910156 4.40625 -0.5625 5.5625 -0.5625 C 6.476562 -0.5625 7.1875 -0.78125 7.6875 -1.21875 C 8.195312 -1.65625 8.453125 -2.203125 8.453125 -2.859375 C 8.453125 -3.253906 8.328125 -3.609375 8.078125 -3.921875 C 7.828125 -4.234375 7.410156 -4.578125 6.828125 -4.953125 L 3.296875 -7.296875 C 1.984375 -8.179688 1.328125 -9.265625 1.328125 -10.546875 C 1.328125 -10.679688 1.335938 -10.816406 1.359375 -10.953125 C 1.441406 -12.023438 1.859375 -12.882812 2.609375 -13.53125 C 3.359375 -14.1875 4.363281 -14.515625 5.625 -14.515625 C 6.375 -14.515625 7.296875 -14.445312 8.390625 -14.3125 L 9.671875 -14.3125 L 9.40625 -11.328125 L 9.203125 -11.328125 C 9.203125 -12.023438 8.941406 -12.585938 8.421875 -13.015625 C 7.898438 -13.441406 7.207031 -13.65625 6.34375 -13.65625 C 5.28125 -13.65625 4.515625 -13.332031 4.046875 -12.6875 C 3.796875 -12.375 3.671875 -12.0625 3.671875 -11.75 C 3.671875 -11.4375 3.734375 -11.171875 3.859375 -10.953125 C 4.046875 -10.597656 4.460938 -10.21875 5.109375 -9.8125 L 8.984375 -7.296875 C 10.203125 -6.492188 10.8125 -5.453125 10.8125 -4.171875 C 10.8125 -2.734375 10.316406 -1.628906 9.328125 -0.859375 C 8.347656 -0.0976562 7.046875 0.28125 5.421875 0.28125 C 4.503906 0.28125 3.65625 0.171875 2.875 -0.046875 C 2.09375 -0.273438 1.519531 -0.578125 1.15625 -0.953125 C 1.0625 -1.210938 1.015625 -1.523438 1.015625 -1.890625 Z M 1.015625 -1.890625 "/></g></g></g><g fill="#ffffff" fill-opacity="0.4"><g transform="translate(199.432789, 21.273397)"><g/></g></g><g fill="#ffffff" fill-opacity="0.4"><g transform="translate(204.514895, 21.273397)"><g><path d="M 12.75 -10.15625 C 12.75 -9.539062 12.625 -8.953125 12.375 -8.390625 C 11.914062 -7.328125 11.0625 -6.597656 9.8125 -6.203125 C 9.445312 -6.078125 9.109375 -6.015625 8.796875 -6.015625 C 7.835938 -6.015625 6.976562 -6.265625 6.21875 -6.765625 L 6.21875 -6.96875 C 7.238281 -6.945312 8.0625 -7.28125 8.6875 -7.96875 C 9.226562 -8.5625 9.5 -9.34375 9.5 -10.3125 C 9.5 -11.28125 9.265625 -12.03125 8.796875 -12.5625 C 8.328125 -13.101562 7.691406 -13.375 6.890625 -13.375 L 5.53125 -13.375 L 5.53125 -1.484375 C 5.53125 -1.128906 5.65625 -0.828125 5.90625 -0.578125 C 6.164062 -0.328125 6.472656 -0.203125 6.828125 -0.203125 L 7.09375 -0.203125 L 7.09375 0 L 0.921875 0 L 0.921875 -0.203125 L 1.171875 -0.203125 C 1.523438 -0.203125 1.828125 -0.328125 2.078125 -0.578125 C 2.328125 -0.828125 2.460938 -1.128906 2.484375 -1.484375 L 2.484375 -12.84375 C 2.484375 -13.1875 2.351562 -13.46875 2.09375 -13.6875 C 1.832031 -13.914062 1.523438 -14.03125 1.171875 -14.03125 L 0.921875 -14.03125 L 0.921875 -14.234375 L 7.703125 -14.234375 C 9.359375 -14.234375 10.601562 -13.878906 11.4375 -13.171875 C 12.3125 -12.421875 12.75 -11.414062 12.75 -10.15625 Z M 12.75 -10.15625 "/></g></g></g><g fill="#ffffff" fill-opacity="0.4"><g transform="translate(217.830007, 21.273397)"><g><path d="M 6.46875 -13.328125 L 5.59375 -13.328125 C 5.5625 -13.328125 5.539062 -13.328125 5.53125 -13.328125 L 5.53125 -1.484375 C 5.539062 -1.128906 5.671875 -0.828125 5.921875 -0.578125 C 6.171875 -0.328125 6.472656 -0.203125 6.828125 -0.203125 L 7.09375 -0.203125 L 7.09375 0 L 0.921875 0 L 0.921875 -0.203125 L 1.171875 -0.203125 C 1.660156 -0.203125 2.035156 -0.410156 2.296875 -0.828125 C 2.398438 -1.023438 2.460938 -1.238281 2.484375 -1.46875 L 2.484375 -12.75 C 2.460938 -13.101562 2.328125 -13.40625 2.078125 -13.65625 C 1.828125 -13.90625 1.523438 -14.03125 1.171875 -14.03125 L 0.921875 -14.03125 L 0.921875 -14.234375 L 7.890625 -14.234375 C 9.203125 -14.234375 10.3125 -13.945312 11.21875 -13.375 C 11.675781 -13.09375 12.039062 -12.695312 12.3125 -12.1875 C 12.582031 -11.675781 12.71875 -11.007812 12.71875 -10.1875 C 12.71875 -9.375 12.429688 -8.585938 11.859375 -7.828125 C 11.296875 -7.066406 10.472656 -6.632812 9.390625 -6.53125 C 10.179688 -6.269531 10.875 -5.671875 11.46875 -4.734375 C 12.925781 -2.390625 14.007812 -0.992188 14.71875 -0.546875 C 15.070312 -0.328125 15.507812 -0.210938 16.03125 -0.203125 L 16.03125 0 L 14.046875 0 C 12.867188 0 11.890625 -0.15625 11.109375 -0.46875 C 10.328125 -0.78125 9.710938 -1.328125 9.265625 -2.109375 C 9.015625 -2.554688 8.453125 -3.71875 7.578125 -5.59375 C 7.203125 -6.414062 6.742188 -6.867188 6.203125 -6.953125 L 6.203125 -7.15625 L 6.828125 -7.15625 C 7.441406 -7.15625 7.976562 -7.335938 8.4375 -7.703125 C 8.90625 -8.066406 9.222656 -8.664062 9.390625 -9.5 C 9.441406 -9.78125 9.46875 -10 9.46875 -10.15625 C 9.46875 -11.269531 9.242188 -12.070312 8.796875 -12.5625 C 8.347656 -13.0625 7.773438 -13.316406 7.078125 -13.328125 C 6.941406 -13.328125 6.738281 -13.328125 6.46875 -13.328125 Z M 6.46875 -13.328125 "/></g></g></g><g fill="#ffffff" fill-opacity="0.4"><g transform="translate(233.01534, 21.273397)"><g><path d="M 3.15625 -12.515625 C 4.601562 -13.847656 6.550781 -14.515625 9 -14.515625 C 11.445312 -14.515625 13.390625 -13.847656 14.828125 -12.515625 C 16.273438 -11.191406 17 -9.390625 17 -7.109375 C 17 -4.835938 16.273438 -3.035156 14.828125 -1.703125 C 13.390625 -0.378906 11.445312 0.28125 9 0.28125 C 6.550781 0.28125 4.601562 -0.378906 3.15625 -1.703125 C 1.71875 -3.035156 1 -4.835938 1 -7.109375 C 1 -9.390625 1.71875 -11.191406 3.15625 -12.515625 Z M 5.578125 -2.3125 C 6.410156 -1.144531 7.546875 -0.5625 8.984375 -0.5625 C 10.421875 -0.5625 11.554688 -1.144531 12.390625 -2.3125 C 13.234375 -3.488281 13.65625 -5.085938 13.65625 -7.109375 C 13.65625 -9.128906 13.234375 -10.722656 12.390625 -11.890625 C 11.554688 -13.066406 10.421875 -13.65625 8.984375 -13.65625 C 7.546875 -13.65625 6.410156 -13.066406 5.578125 -11.890625 C 4.742188 -10.722656 4.328125 -9.128906 4.328125 -7.109375 C 4.328125 -5.085938 4.742188 -3.488281 5.578125 -2.3125 Z M 5.578125 -2.3125 "/></g></g></g><g fill="#df9b00" fill-opacity="1"><g transform="translate(2.46611, 20.374364)"><g><path d="M 19.25 -0.203125 L 19.578125 -0.203125 L 19.578125 0 L 13.484375 0 L 13.484375 -0.1875 L 13.78125 -0.1875 C 14.007812 -0.195312 14.203125 -0.289062 14.359375 -0.46875 C 14.523438 -0.644531 14.597656 -0.84375 14.578125 -1.0625 L 13.78125 -8.4375 L 9.953125 -1.84375 C 9.453125 -1.007812 9.195312 -0.257812 9.1875 0.40625 L 8.984375 0.40625 L 3.765625 -8.375 L 2.96875 -1.0625 C 2.9375 -0.84375 3.003906 -0.640625 3.171875 -0.453125 C 3.335938 -0.273438 3.535156 -0.1875 3.765625 -0.1875 L 4.0625 -0.1875 L 4.0625 0 L -0.1875 0 L -0.1875 -0.203125 L 0.140625 -0.203125 C 0.523438 -0.203125 0.851562 -0.316406 1.125 -0.546875 C 1.40625 -0.773438 1.570312 -1.085938 1.625 -1.484375 L 3.3125 -14.515625 L 3.5 -14.515625 L 9.796875 -4.140625 L 15.859375 -14.515625 L 16.03125 -14.515625 L 17.765625 -1.484375 C 17.835938 -1.085938 18.007812 -0.773438 18.28125 -0.546875 C 18.5625 -0.316406 18.882812 -0.203125 19.25 -0.203125 Z M 19.25 -0.203125 "/></g></g></g><g fill="#df9b00" fill-opacity="1"><g transform="translate(21.839101, 20.374364)"><g><path d="M 15 -0.203125 L 15.1875 -0.203125 L 15.1875 0 L 8.703125 0 L 8.703125 -0.203125 L 8.875 -0.203125 C 9.175781 -0.203125 9.394531 -0.289062 9.53125 -0.46875 C 9.675781 -0.65625 9.75 -0.828125 9.75 -0.984375 C 9.75 -1.148438 9.71875 -1.316406 9.65625 -1.484375 L 8.65625 -3.984375 L 3.890625 -3.984375 L 2.84375 -1.484375 C 2.769531 -1.304688 2.734375 -1.140625 2.734375 -0.984375 C 2.734375 -0.828125 2.804688 -0.65625 2.953125 -0.46875 C 3.109375 -0.289062 3.335938 -0.203125 3.640625 -0.203125 L 3.796875 -0.203125 L 3.796875 0 L -0.546875 0 L -0.546875 -0.203125 L -0.375 -0.203125 C -0.0625 -0.203125 0.25 -0.296875 0.5625 -0.484375 C 0.875 -0.671875 1.132812 -0.957031 1.34375 -1.34375 L 6.03125 -11.96875 C 6.664062 -13.3125 7.003906 -14.203125 7.046875 -14.640625 L 7.234375 -14.640625 L 13.265625 -1.375 C 13.472656 -0.988281 13.734375 -0.695312 14.046875 -0.5 C 14.359375 -0.300781 14.675781 -0.203125 15 -0.203125 Z M 4.25 -4.84375 L 8.3125 -4.84375 L 6.34375 -9.84375 Z M 4.25 -4.84375 "/></g></g></g><g fill="#df9b00" fill-opacity="1"><g transform="translate(36.394246, 20.374364)"><g><path d="M 16.609375 -14.03125 C 16.128906 -14.03125 15.769531 -13.828125 15.53125 -13.421875 C 15.425781 -13.242188 15.363281 -13.039062 15.34375 -12.8125 L 15.34375 -2.3125 C 15.34375 -1.40625 15.40625 -0.640625 15.53125 -0.015625 L 15.59375 0.28125 L 15.40625 0.28125 L 5.140625 -9.5 L 5.140625 -1.421875 C 5.140625 -1.085938 5.257812 -0.800781 5.5 -0.5625 C 5.75 -0.320312 6.046875 -0.203125 6.390625 -0.203125 L 6.765625 -0.203125 L 6.765625 0 L 0.609375 0 L 0.609375 -0.203125 L 0.96875 -0.203125 C 1.320312 -0.203125 1.617188 -0.320312 1.859375 -0.5625 C 2.109375 -0.800781 2.234375 -1.09375 2.234375 -1.4375 L 2.234375 -12 C 2.234375 -12.882812 2.171875 -13.628906 2.046875 -14.234375 L 2.015625 -14.53125 L 2.203125 -14.53125 L 12.46875 -4.75 L 12.46875 -12.78125 C 12.445312 -13.132812 12.3125 -13.429688 12.0625 -13.671875 C 11.820312 -13.910156 11.535156 -14.03125 11.203125 -14.03125 L 10.828125 -14.03125 L 10.828125 -14.234375 L 17 -14.234375 L 17 -14.03125 Z M 16.609375 -14.03125 "/></g></g></g><g fill="#df9b00" fill-opacity="1"><g transform="translate(53.978323, 20.374364)"><g><path d="M 1.125 -0.203125 C 1.46875 -0.203125 1.765625 -0.328125 2.015625 -0.578125 C 2.273438 -0.828125 2.410156 -1.128906 2.421875 -1.484375 L 2.421875 -12.765625 C 2.410156 -13.117188 2.273438 -13.414062 2.015625 -13.65625 C 1.765625 -13.90625 1.46875 -14.03125 1.125 -14.03125 L 0.859375 -14.03125 L 0.859375 -14.234375 L 7.03125 -14.234375 L 7.015625 -14.03125 L 6.765625 -14.03125 C 6.410156 -14.03125 6.101562 -13.90625 5.84375 -13.65625 C 5.59375 -13.414062 5.46875 -13.117188 5.46875 -12.765625 L 5.46875 -1.484375 C 5.46875 -1.128906 5.59375 -0.828125 5.84375 -0.578125 C 6.101562 -0.328125 6.410156 -0.203125 6.765625 -0.203125 L 7.015625 -0.203125 L 7.03125 0 L 0.859375 0 L 0.859375 -0.203125 Z M 1.125 -0.203125 "/></g></g></g><g fill="#df9b00" fill-opacity="1"><g transform="translate(61.825098, 20.374364)"><g><path d="M 5.46875 -13.359375 L 5.46875 -7.4375 L 8.15625 -7.4375 C 8.65625 -7.445312 9.066406 -7.613281 9.390625 -7.9375 C 9.710938 -8.269531 9.875 -8.6875 9.875 -9.1875 L 9.875 -9.375 L 10.078125 -9.375 L 10.078125 -4.671875 L 9.875 -4.671875 L 9.875 -4.84375 C 9.875 -5.34375 9.710938 -5.753906 9.390625 -6.078125 C 9.078125 -6.398438 8.675781 -6.570312 8.1875 -6.59375 L 5.46875 -6.59375 L 5.46875 -1.484375 C 5.46875 -1.128906 5.59375 -0.828125 5.84375 -0.578125 C 6.101562 -0.328125 6.410156 -0.203125 6.765625 -0.203125 L 7.015625 -0.203125 L 7.03125 0 L 0.859375 0 L 0.859375 -0.203125 L 1.125 -0.203125 C 1.46875 -0.203125 1.765625 -0.328125 2.015625 -0.578125 C 2.273438 -0.828125 2.410156 -1.128906 2.421875 -1.484375 L 2.421875 -12.8125 C 2.421875 -13.28125 2.195312 -13.628906 1.75 -13.859375 C 1.5625 -13.972656 1.351562 -14.03125 1.125 -14.03125 L 0.859375 -14.03125 L 0.859375 -14.234375 L 8.640625 -14.234375 C 9.054688 -14.234375 9.515625 -14.269531 10.015625 -14.34375 C 10.523438 -14.425781 10.878906 -14.507812 11.078125 -14.59375 L 11.078125 -11.15625 L 10.875 -11.15625 L 10.875 -11.359375 C 10.875 -11.953125 10.703125 -12.425781 10.359375 -12.78125 C 10.015625 -13.144531 9.539062 -13.335938 8.9375 -13.359375 Z M 5.46875 -13.359375 "/></g></g></g><g fill="#df9b00" fill-opacity="1"><g transform="translate(73.920516, 20.374364)"><g><path d="M 1.125 -0.203125 C 1.46875 -0.203125 1.765625 -0.328125 2.015625 -0.578125 C 2.273438 -0.828125 2.410156 -1.128906 2.421875 -1.484375 L 2.421875 -12.8125 C 2.390625 -13.15625 2.285156 -13.410156 2.109375 -13.578125 C 1.785156 -13.878906 1.457031 -14.03125 1.125 -14.03125 L 0.859375 -14.03125 L 0.859375 -14.234375 L 8.640625 -14.234375 C 9.304688 -14.234375 9.851562 -14.28125 10.28125 -14.375 C 10.71875 -14.476562 10.984375 -14.550781 11.078125 -14.59375 L 11.078125 -11.03125 L 10.875 -11.0625 L 10.875 -11.28125 C 10.875 -12.125 10.5625 -12.722656 9.9375 -13.078125 C 9.644531 -13.242188 9.296875 -13.335938 8.890625 -13.359375 L 5.46875 -13.359375 L 5.46875 -7.4375 L 8.15625 -7.4375 C 8.65625 -7.445312 9.066406 -7.617188 9.390625 -7.953125 C 9.710938 -8.285156 9.875 -8.695312 9.875 -9.1875 L 9.875 -9.375 L 10.078125 -9.375 L 10.078125 -4.671875 L 9.875 -4.671875 L 9.875 -4.84375 C 9.875 -5.34375 9.710938 -5.753906 9.390625 -6.078125 C 9.078125 -6.398438 8.675781 -6.570312 8.1875 -6.59375 L 5.46875 -6.59375 L 5.46875 -0.875 L 8.125 -0.875 C 9.113281 -0.875 9.941406 -1.15625 10.609375 -1.71875 C 11.285156 -2.289062 11.785156 -3.097656 12.109375 -4.140625 L 12.3125 -4.140625 L 11.390625 0 L 0.859375 0 L 0.859375 -0.203125 Z M 1.125 -0.203125 "/></g></g></g><g fill="#df9b00" fill-opacity="1"><g transform="translate(86.74775, 20.374364)"><g><path d="M 1.015625 -1.890625 C 1.015625 -2.867188 1.222656 -3.703125 1.640625 -4.390625 L 1.828125 -4.390625 C 1.816406 -4.285156 1.8125 -4.175781 1.8125 -4.0625 C 1.8125 -3.125 2.144531 -2.304688 2.8125 -1.609375 C 3.488281 -0.910156 4.40625 -0.5625 5.5625 -0.5625 C 6.476562 -0.5625 7.1875 -0.78125 7.6875 -1.21875 C 8.195312 -1.65625 8.453125 -2.203125 8.453125 -2.859375 C 8.453125 -3.253906 8.328125 -3.609375 8.078125 -3.921875 C 7.828125 -4.234375 7.410156 -4.578125 6.828125 -4.953125 L 3.296875 -7.296875 C 1.984375 -8.179688 1.328125 -9.265625 1.328125 -10.546875 C 1.328125 -10.679688 1.335938 -10.816406 1.359375 -10.953125 C 1.441406 -12.023438 1.859375 -12.882812 2.609375 -13.53125 C 3.359375 -14.1875 4.363281 -14.515625 5.625 -14.515625 C 6.375 -14.515625 7.296875 -14.445312 8.390625 -14.3125 L 9.671875 -14.3125 L 9.40625 -11.328125 L 9.203125 -11.328125 C 9.203125 -12.023438 8.941406 -12.585938 8.421875 -13.015625 C 7.898438 -13.441406 7.207031 -13.65625 6.34375 -13.65625 C 5.28125 -13.65625 4.515625 -13.332031 4.046875 -12.6875 C 3.796875 -12.375 3.671875 -12.0625 3.671875 -11.75 C 3.671875 -11.4375 3.734375 -11.171875 3.859375 -10.953125 C 4.046875 -10.597656 4.460938 -10.21875 5.109375 -9.8125 L 8.984375 -7.296875 C 10.203125 -6.492188 10.8125 -5.453125 10.8125 -4.171875 C 10.8125 -2.734375 10.316406 -1.628906 9.328125 -0.859375 C 8.347656 -0.0976562 7.046875 0.28125 5.421875 0.28125 C 4.503906 0.28125 3.65625 0.171875 2.875 -0.046875 C 2.09375 -0.273438 1.519531 -0.578125 1.15625 -0.953125 C 1.0625 -1.210938 1.015625 -1.523438 1.015625 -1.890625 Z M 1.015625 -1.890625 "/></g></g></g><g fill="#df9b00" fill-opacity="1"><g transform="translate(98.497581, 20.374364)"><g><path d="M 8.3125 -13.390625 L 8.3125 -1.46875 C 8.320312 -1.113281 8.453125 -0.8125 8.703125 -0.5625 C 8.960938 -0.320312 9.265625 -0.203125 9.609375 -0.203125 L 9.859375 -0.203125 L 9.875 0 L 3.703125 0 L 3.703125 -0.203125 L 3.96875 -0.203125 C 4.300781 -0.203125 4.59375 -0.320312 4.84375 -0.5625 C 5.09375 -0.8125 5.234375 -1.101562 5.265625 -1.4375 L 5.265625 -13.390625 L 2.515625 -13.390625 C 1.890625 -13.378906 1.394531 -13.179688 1.03125 -12.796875 C 0.664062 -12.421875 0.484375 -11.929688 0.484375 -11.328125 L 0.484375 -11.078125 L 0.28125 -11.078125 L 0.28125 -14.609375 C 0.84375 -14.378906 1.644531 -14.257812 2.6875 -14.25 L 10.875 -14.25 C 11.289062 -14.25 11.742188 -14.289062 12.234375 -14.375 C 12.734375 -14.457031 13.082031 -14.535156 13.28125 -14.609375 L 13.28125 -11.078125 L 13.078125 -11.078125 L 13.078125 -11.328125 C 13.078125 -12.160156 12.753906 -12.753906 12.109375 -13.109375 C 11.816406 -13.285156 11.457031 -13.378906 11.03125 -13.390625 Z M 8.3125 -13.390625 "/></g></g></g><g fill="#df9b00" fill-opacity="1"><g transform="translate(112.036309, 20.374364)"><g/></g></g><g fill="#df9b00" fill-opacity="1"><g transform="translate(117.118415, 20.374364)"><g><path d="M 20.34375 -14.03125 L 20.15625 -14.03125 C 19.820312 -14.03125 19.476562 -13.925781 19.125 -13.71875 C 18.78125 -13.519531 18.535156 -13.226562 18.390625 -12.84375 L 14.984375 -1.890625 C 14.742188 -1.140625 14.625 -0.445312 14.625 0.1875 C 14.625 0.25 14.625 0.304688 14.625 0.359375 L 14.421875 0.359375 L 10 -9.453125 L 6.78125 -1.890625 C 6.46875 -1.109375 6.304688 -0.359375 6.296875 0.359375 L 6.09375 0.359375 L 1.234375 -12.84375 C 1.054688 -13.238281 0.804688 -13.535156 0.484375 -13.734375 C 0.160156 -13.929688 -0.171875 -14.03125 -0.515625 -14.03125 L -0.671875 -14.03125 L -0.671875 -14.234375 L 5.53125 -14.234375 L 5.53125 -14.03125 L 5.34375 -14.03125 C 5.0625 -14.03125 4.847656 -13.9375 4.703125 -13.75 C 4.554688 -13.570312 4.484375 -13.398438 4.484375 -13.234375 C 4.484375 -13.066406 4.507812 -12.910156 4.5625 -12.765625 L 7.0625 -5.6875 L 10.75 -14.5625 L 10.9375 -14.53125 L 14.984375 -5.609375 L 17.015625 -12.765625 C 17.054688 -12.910156 17.078125 -13.066406 17.078125 -13.234375 C 17.078125 -13.398438 17.007812 -13.570312 16.875 -13.75 C 16.75 -13.9375 16.535156 -14.03125 16.234375 -14.03125 L 16.046875 -14.03125 L 16.046875 -14.234375 L 20.34375 -14.234375 Z M 20.34375 -14.03125 "/></g></g></g><g fill="#df9b00" fill-opacity="1"><g transform="translate(136.857314, 20.374364)"><g><path d="M 1.125 -0.203125 C 1.46875 -0.203125 1.765625 -0.328125 2.015625 -0.578125 C 2.273438 -0.828125 2.410156 -1.128906 2.421875 -1.484375 L 2.421875 -12.765625 C 2.410156 -13.117188 2.273438 -13.414062 2.015625 -13.65625 C 1.765625 -13.90625 1.46875 -14.03125 1.125 -14.03125 L 0.859375 -14.03125 L 0.859375 -14.234375 L 7.03125 -14.234375 L 7.015625 -14.03125 L 6.765625 -14.03125 C 6.410156 -14.03125 6.101562 -13.90625 5.84375 -13.65625 C 5.59375 -13.414062 5.46875 -13.117188 5.46875 -12.765625 L 5.46875 -1.484375 C 5.46875 -1.128906 5.59375 -0.828125 5.84375 -0.578125 C 6.101562 -0.328125 6.410156 -0.203125 6.765625 -0.203125 L 7.015625 -0.203125 L 7.03125 0 L 0.859375 0 L 0.859375 -0.203125 Z M 1.125 -0.203125 "/></g></g></g><g fill="#df9b00" fill-opacity="1"><g transform="translate(144.704089, 20.374364)"><g><path d="M 1.015625 -1.890625 C 1.015625 -2.867188 1.222656 -3.703125 1.640625 -4.390625 L 1.828125 -4.390625 C 1.816406 -4.285156 1.8125 -4.175781 1.8125 -4.0625 C 1.8125 -3.125 2.144531 -2.304688 2.8125 -1.609375 C 3.488281 -0.910156 4.40625 -0.5625 5.5625 -0.5625 C 6.476562 -0.5625 7.1875 -0.78125 7.6875 -1.21875 C 8.195312 -1.65625 8.453125 -2.203125 8.453125 -2.859375 C 8.453125 -3.253906 8.328125 -3.609375 8.078125 -3.921875 C 7.828125 -4.234375 7.410156 -4.578125 6.828125 -4.953125 L 3.296875 -7.296875 C 1.984375 -8.179688 1.328125 -9.265625 1.328125 -10.546875 C 1.328125 -10.679688 1.335938 -10.816406 1.359375 -10.953125 C 1.441406 -12.023438 1.859375 -12.882812 2.609375 -13.53125 C 3.359375 -14.1875 4.363281 -14.515625 5.625 -14.515625 C 6.375 -14.515625 7.296875 -14.445312 8.390625 -14.3125 L 9.671875 -14.3125 L 9.40625 -11.328125 L 9.203125 -11.328125 C 9.203125 -12.023438 8.941406 -12.585938 8.421875 -13.015625 C 7.898438 -13.441406 7.207031 -13.65625 6.34375 -13.65625 C 5.28125 -13.65625 4.515625 -13.332031 4.046875 -12.6875 C 3.796875 -12.375 3.671875 -12.0625 3.671875 -11.75 C 3.671875 -11.4375 3.734375 -11.171875 3.859375 -10.953125 C 4.046875 -10.597656 4.460938 -10.21875 5.109375 -9.8125 L 8.984375 -7.296875 C 10.203125 -6.492188 10.8125 -5.453125 10.8125 -4.171875 C 10.8125 -2.734375 10.316406 -1.628906 9.328125 -0.859375 C 8.347656 -0.0976562 7.046875 0.28125 5.421875 0.28125 C 4.503906 0.28125 3.65625 0.171875 2.875 -0.046875 C 2.09375 -0.273438 1.519531 -0.578125 1.15625 -0.953125 C 1.0625 -1.210938 1.015625 -1.523438 1.015625 -1.890625 Z M 1.015625 -1.890625 "/></g></g></g><g fill="#df9b00" fill-opacity="1"><g transform="translate(156.453921, 20.374364)"><g><path d="M 10.75 -0.203125 C 11.101562 -0.203125 11.375 -0.289062 11.5625 -0.46875 C 11.875 -0.78125 12.035156 -1.113281 12.046875 -1.46875 L 12.046875 -6.640625 L 5.46875 -6.640625 L 5.46875 -1.484375 C 5.46875 -1.128906 5.59375 -0.828125 5.84375 -0.578125 C 6.101562 -0.328125 6.410156 -0.203125 6.765625 -0.203125 L 7.015625 -0.203125 L 7.03125 0 L 0.859375 0 L 0.859375 -0.203125 L 1.125 -0.203125 C 1.46875 -0.203125 1.765625 -0.328125 2.015625 -0.578125 C 2.273438 -0.828125 2.410156 -1.128906 2.421875 -1.484375 L 2.421875 -12.75 C 2.410156 -13.101562 2.273438 -13.40625 2.015625 -13.65625 C 1.765625 -13.90625 1.46875 -14.03125 1.125 -14.03125 L 0.859375 -14.03125 L 0.859375 -14.234375 L 7.03125 -14.234375 L 7.015625 -14.03125 L 6.765625 -14.03125 C 6.410156 -14.03125 6.101562 -13.90625 5.84375 -13.65625 C 5.59375 -13.40625 5.46875 -13.101562 5.46875 -12.75 L 5.46875 -7.515625 L 12.046875 -7.515625 L 12.046875 -12.75 C 12.035156 -13.101562 11.90625 -13.40625 11.65625 -13.65625 C 11.40625 -13.90625 11.101562 -14.03125 10.75 -14.03125 L 10.484375 -14.03125 L 10.484375 -14.234375 L 16.671875 -14.234375 L 16.671875 -14.03125 L 16.40625 -14.03125 C 16.050781 -14.03125 15.742188 -13.90625 15.484375 -13.65625 C 15.234375 -13.40625 15.109375 -13.101562 15.109375 -12.75 L 15.109375 -1.484375 C 15.109375 -1.128906 15.234375 -0.828125 15.484375 -0.578125 C 15.742188 -0.328125 16.050781 -0.203125 16.40625 -0.203125 L 16.671875 -0.203125 L 16.671875 0 L 10.484375 0 L 10.484375 -0.203125 Z M 10.75 -0.203125 "/></g></g></g><g fill="#df9b00" fill-opacity="1"><g transform="translate(173.95669, 20.374364)"><g><path d="M 1.125 -0.203125 C 1.46875 -0.203125 1.765625 -0.328125 2.015625 -0.578125 C 2.273438 -0.828125 2.410156 -1.128906 2.421875 -1.484375 L 2.421875 -12.8125 C 2.390625 -13.15625 2.285156 -13.410156 2.109375 -13.578125 C 1.785156 -13.878906 1.457031 -14.03125 1.125 -14.03125 L 0.859375 -14.03125 L 0.859375 -14.234375 L 8.640625 -14.234375 C 9.304688 -14.234375 9.851562 -14.28125 10.28125 -14.375 C 10.71875 -14.476562 10.984375 -14.550781 11.078125 -14.59375 L 11.078125 -11.03125 L 10.875 -11.0625 L 10.875 -11.28125 C 10.875 -12.125 10.5625 -12.722656 9.9375 -13.078125 C 9.644531 -13.242188 9.296875 -13.335938 8.890625 -13.359375 L 5.46875 -13.359375 L 5.46875 -7.4375 L 8.15625 -7.4375 C 8.65625 -7.445312 9.066406 -7.617188 9.390625 -7.953125 C 9.710938 -8.285156 9.875 -8.695312 9.875 -9.1875 L 9.875 -9.375 L 10.078125 -9.375 L 10.078125 -4.671875 L 9.875 -4.671875 L 9.875 -4.84375 C 9.875 -5.34375 9.710938 -5.753906 9.390625 -6.078125 C 9.078125 -6.398438 8.675781 -6.570312 8.1875 -6.59375 L 5.46875 -6.59375 L 5.46875 -0.875 L 8.125 -0.875 C 9.113281 -0.875 9.941406 -1.15625 10.609375 -1.71875 C 11.285156 -2.289062 11.785156 -3.097656 12.109375 -4.140625 L 12.3125 -4.140625 L 11.390625 0 L 0.859375 0 L 0.859375 -0.203125 Z M 1.125 -0.203125 "/></g></g></g><g fill="#df9b00" fill-opacity="1"><g transform="translate(186.783925, 20.374364)"><g><path d="M 1.015625 -1.890625 C 1.015625 -2.867188 1.222656 -3.703125 1.640625 -4.390625 L 1.828125 -4.390625 C 1.816406 -4.285156 1.8125 -4.175781 1.8125 -4.0625 C 1.8125 -3.125 2.144531 -2.304688 2.8125 -1.609375 C 3.488281 -0.910156 4.40625 -0.5625 5.5625 -0.5625 C 6.476562 -0.5625 7.1875 -0.78125 7.6875 -1.21875 C 8.195312 -1.65625 8.453125 -2.203125 8.453125 -2.859375 C 8.453125 -3.253906 8.328125 -3.609375 8.078125 -3.921875 C 7.828125 -4.234375 7.410156 -4.578125 6.828125 -4.953125 L 3.296875 -7.296875 C 1.984375 -8.179688 1.328125 -9.265625 1.328125 -10.546875 C 1.328125 -10.679688 1.335938 -10.816406 1.359375 -10.953125 C 1.441406 -12.023438 1.859375 -12.882812 2.609375 -13.53125 C 3.359375 -14.1875 4.363281 -14.515625 5.625 -14.515625 C 6.375 -14.515625 7.296875 -14.445312 8.390625 -14.3125 L 9.671875 -14.3125 L 9.40625 -11.328125 L 9.203125 -11.328125 C 9.203125 -12.023438 8.941406 -12.585938 8.421875 -13.015625 C 7.898438 -13.441406 7.207031 -13.65625 6.34375 -13.65625 C 5.28125 -13.65625 4.515625 -13.332031 4.046875 -12.6875 C 3.796875 -12.375 3.671875 -12.0625 3.671875 -11.75 C 3.671875 -11.4375 3.734375 -11.171875 3.859375 -10.953125 C 4.046875 -10.597656 4.460938 -10.21875 5.109375 -9.8125 L 8.984375 -7.296875 C 10.203125 -6.492188 10.8125 -5.453125 10.8125 -4.171875 C 10.8125 -2.734375 10.316406 -1.628906 9.328125 -0.859375 C 8.347656 -0.0976562 7.046875 0.28125 5.421875 0.28125 C 4.503906 0.28125 3.65625 0.171875 2.875 -0.046875 C 2.09375 -0.273438 1.519531 -0.578125 1.15625 -0.953125 C 1.0625 -1.210938 1.015625 -1.523438 1.015625 -1.890625 Z M 1.015625 -1.890625 "/></g></g></g><g fill="#df9b00" fill-opacity="1"><g transform="translate(198.533756, 20.374364)"><g/></g></g><g fill="#df9b00" fill-opacity="1"><g transform="translate(203.615862, 20.374364)"><g><path d="M 12.75 -10.15625 C 12.75 -9.539062 12.625 -8.953125 12.375 -8.390625 C 11.914062 -7.328125 11.0625 -6.597656 9.8125 -6.203125 C 9.445312 -6.078125 9.109375 -6.015625 8.796875 -6.015625 C 7.835938 -6.015625 6.976562 -6.265625 6.21875 -6.765625 L 6.21875 -6.96875 C 7.238281 -6.945312 8.0625 -7.28125 8.6875 -7.96875 C 9.226562 -8.5625 9.5 -9.34375 9.5 -10.3125 C 9.5 -11.28125 9.265625 -12.03125 8.796875 -12.5625 C 8.328125 -13.101562 7.691406 -13.375 6.890625 -13.375 L 5.53125 -13.375 L 5.53125 -1.484375 C 5.53125 -1.128906 5.65625 -0.828125 5.90625 -0.578125 C 6.164062 -0.328125 6.472656 -0.203125 6.828125 -0.203125 L 7.09375 -0.203125 L 7.09375 0 L 0.921875 0 L 0.921875 -0.203125 L 1.171875 -0.203125 C 1.523438 -0.203125 1.828125 -0.328125 2.078125 -0.578125 C 2.328125 -0.828125 2.460938 -1.128906 2.484375 -1.484375 L 2.484375 -12.84375 C 2.484375 -13.1875 2.351562 -13.46875 2.09375 -13.6875 C 1.832031 -13.914062 1.523438 -14.03125 1.171875 -14.03125 L 0.921875 -14.03125 L 0.921875 -14.234375 L 7.703125 -14.234375 C 9.359375 -14.234375 10.601562 -13.878906 11.4375 -13.171875 C 12.3125 -12.421875 12.75 -11.414062 12.75 -10.15625 Z M 12.75 -10.15625 "/></g></g></g><g fill="#df9b00" fill-opacity="1"><g transform="translate(216.930974, 20.374364)"><g><path d="M 6.46875 -13.328125 L 5.59375 -13.328125 C 5.5625 -13.328125 5.539062 -13.328125 5.53125 -13.328125 L 5.53125 -1.484375 C 5.539062 -1.128906 5.671875 -0.828125 5.921875 -0.578125 C 6.171875 -0.328125 6.472656 -0.203125 6.828125 -0.203125 L 7.09375 -0.203125 L 7.09375 0 L 0.921875 0 L 0.921875 -0.203125 L 1.171875 -0.203125 C 1.660156 -0.203125 2.035156 -0.410156 2.296875 -0.828125 C 2.398438 -1.023438 2.460938 -1.238281 2.484375 -1.46875 L 2.484375 -12.75 C 2.460938 -13.101562 2.328125 -13.40625 2.078125 -13.65625 C 1.828125 -13.90625 1.523438 -14.03125 1.171875 -14.03125 L 0.921875 -14.03125 L 0.921875 -14.234375 L 7.890625 -14.234375 C 9.203125 -14.234375 10.3125 -13.945312 11.21875 -13.375 C 11.675781 -13.09375 12.039062 -12.695312 12.3125 -12.1875 C 12.582031 -11.675781 12.71875 -11.007812 12.71875 -10.1875 C 12.71875 -9.375 12.429688 -8.585938 11.859375 -7.828125 C 11.296875 -7.066406 10.472656 -6.632812 9.390625 -6.53125 C 10.179688 -6.269531 10.875 -5.671875 11.46875 -4.734375 C 12.925781 -2.390625 14.007812 -0.992188 14.71875 -0.546875 C 15.070312 -0.328125 15.507812 -0.210938 16.03125 -0.203125 L 16.03125 0 L 14.046875 0 C 12.867188 0 11.890625 -0.15625 11.109375 -0.46875 C 10.328125 -0.78125 9.710938 -1.328125 9.265625 -2.109375 C 9.015625 -2.554688 8.453125 -3.71875 7.578125 -5.59375 C 7.203125 -6.414062 6.742188 -6.867188 6.203125 -6.953125 L 6.203125 -7.15625 L 6.828125 -7.15625 C 7.441406 -7.15625 7.976562 -7.335938 8.4375 -7.703125 C 8.90625 -8.066406 9.222656 -8.664062 9.390625 -9.5 C 9.441406 -9.78125 9.46875 -10 9.46875 -10.15625 C 9.46875 -11.269531 9.242188 -12.070312 8.796875 -12.5625 C 8.347656 -13.0625 7.773438 -13.316406 7.078125 -13.328125 C 6.941406 -13.328125 6.738281 -13.328125 6.46875 -13.328125 Z M 6.46875 -13.328125 "/></g></g></g><g fill="#df9b00" fill-opacity="1"><g transform="translate(232.116307, 20.374364)"><g><path d="M 3.15625 -12.515625 C 4.601562 -13.847656 6.550781 -14.515625 9 -14.515625 C 11.445312 -14.515625 13.390625 -13.847656 14.828125 -12.515625 C 16.273438 -11.191406 17 -9.390625 17 -7.109375 C 17 -4.835938 16.273438 -3.035156 14.828125 -1.703125 C 13.390625 -0.378906 11.445312 0.28125 9 0.28125 C 6.550781 0.28125 4.601562 -0.378906 3.15625 -1.703125 C 1.71875 -3.035156 1 -4.835938 1 -7.109375 C 1 -9.390625 1.71875 -11.191406 3.15625 -12.515625 Z M 5.578125 -2.3125 C 6.410156 -1.144531 7.546875 -0.5625 8.984375 -0.5625 C 10.421875 -0.5625 11.554688 -1.144531 12.390625 -2.3125 C 13.234375 -3.488281 13.65625 -5.085938 13.65625 -7.109375 C 13.65625 -9.128906 13.234375 -10.722656 12.390625 -11.890625 C 11.554688 -13.066406 10.421875 -13.65625 8.984375 -13.65625 C 7.546875 -13.65625 6.410156 -13.066406 5.578125 -11.890625 C 4.742188 -10.722656 4.328125 -9.128906 4.328125 -7.109375 C 4.328125 -5.085938 4.742188 -3.488281 5.578125 -2.3125 Z M 5.578125 -2.3125 "/></g></g></g></g></g><path fill="#df9b00" d="M 203.800781 228.160156 C 203.78125 228.1875 203.761719 228.214844 203.800781 228.160156 Z M 203.800781 228.160156 " fill-opacity="1" fill-rule="nonzero"/><path fill="#df9b00" d="M 171.199219 228.160156 C 171.234375 228.214844 171.21875 228.1875 171.199219 228.160156 Z M 171.199219 228.160156 " fill-opacity="1" fill-rule="nonzero"/><g clip-path="url(#5da0cc8e1a)"><path fill="#df9b00" d="M 237.722656 151.621094 C 254.503906 139.234375 273.316406 127.945312 282.535156 108.21875 C 287.421875 97.765625 288.84375 84.117188 280.015625 75.3125 C 285.558594 105.488281 260.417969 128.5 235.898438 140.933594 C 213.46875 153.019531 191.527344 163.746094 190.804688 192.765625 C 190.363281 202.679688 191.277344 212.429688 195.265625 221.6875 C 194.898438 228.253906 191.035156 234.390625 187.5 240.066406 C 183.964844 234.394531 180.101562 228.253906 179.734375 221.6875 C 183.71875 212.429688 184.632812 202.679688 184.195312 192.765625 C 183.472656 163.75 161.53125 153.019531 139.101562 140.933594 C 114.582031 128.5 89.4375 105.488281 94.984375 75.3125 C 86.15625 84.117188 87.578125 97.765625 92.464844 108.21875 C 101.683594 127.941406 120.496094 139.230469 137.277344 151.621094 C 158.59375 164.644531 183.894531 206.332031 156.789062 222.691406 C 183.613281 224.242188 174.667969 179.164062 162.707031 165.140625 C 160.808594 162.554688 158.664062 160.152344 156.390625 157.375 C 180.734375 171.066406 185.257812 205.546875 171.199219 228.15625 C 172.753906 227.382812 174.410156 226.78125 176.167969 225.90625 C 178.359375 233.550781 182.429688 240.210938 187.5 246.480469 C 192.570312 240.210938 196.640625 233.550781 198.832031 225.90625 C 200.589844 226.78125 202.246094 227.382812 203.800781 228.15625 C 189.742188 205.546875 194.261719 171.066406 218.605469 157.375 C 216.332031 160.15625 214.191406 162.558594 212.292969 165.140625 C 200.332031 179.164062 191.386719 224.242188 218.210938 222.691406 C 191.105469 206.335938 216.40625 164.644531 237.722656 151.621094 Z M 237.722656 151.621094 " fill-opacity="1" fill-rule="nonzero"/></g><path fill="#df9b00" d="M 234.457031 158.273438 C 232.441406 158.230469 228.261719 162.617188 226.433594 164.644531 C 248.734375 174.542969 282.371094 175.558594 296.371094 151.976562 C 277.425781 161.898438 255.070312 159.335938 234.457031 158.273438 Z M 234.457031 158.273438 " fill-opacity="1" fill-rule="nonzero"/><path fill="#df9b00" d="M 148.566406 164.644531 C 146.734375 162.617188 142.554688 158.230469 140.542969 158.273438 C 119.929688 159.335938 97.574219 161.894531 78.628906 151.976562 C 92.628906 175.558594 126.265625 174.542969 148.566406 164.644531 Z M 148.566406 164.644531 " fill-opacity="1" fill-rule="nonzero"/><path fill="#df9b00" d="M 239.214844 154.332031 C 251.953125 154.742188 265.335938 156.289062 277.582031 151.96875 C 286.488281 148.511719 296.296875 143.070312 299.523438 133.46875 C 286.601562 143.640625 269.453125 142.582031 254.132812 144.238281 C 249.078125 147.441406 244.214844 151.035156 239.214844 154.332031 Z M 239.214844 154.332031 " fill-opacity="1" fill-rule="nonzero"/><path fill="#df9b00" d="M 97.414062 151.96875 C 109.660156 156.285156 123.042969 154.742188 135.78125 154.328125 C 130.78125 151.035156 125.921875 147.441406 120.863281 144.234375 C 105.542969 142.578125 88.394531 143.636719 75.472656 133.464844 C 78.699219 143.070312 88.507812 148.511719 97.414062 151.96875 Z M 97.414062 151.96875 " fill-opacity="1" fill-rule="nonzero"/><path fill="#df9b00" d="M 217.394531 177.675781 C 217.128906 178.570312 217.304688 179.53125 217.828125 180.300781 C 220.066406 183.570312 222.253906 186.898438 224.789062 189.929688 C 234.210938 201.789062 252.023438 208.867188 265.183594 198.171875 C 247.195312 194.96875 219.421875 174.058594 219.421875 174.058594 C 219.421875 174.058594 217.925781 175.894531 217.394531 177.675781 Z M 217.394531 177.675781 " fill-opacity="1" fill-rule="nonzero"/><path fill="#df9b00" d="M 150.210938 189.933594 C 152.746094 186.902344 154.929688 183.570312 157.171875 180.300781 C 157.699219 179.535156 157.871094 178.570312 157.605469 177.679688 C 157.074219 175.894531 155.574219 174.0625 155.574219 174.0625 C 155.574219 174.0625 127.804688 194.972656 109.8125 198.175781 C 122.976562 208.871094 140.789062 201.792969 150.210938 189.933594 Z M 150.210938 189.933594 " fill-opacity="1" fill-rule="nonzero"/><path fill="#df9b00" d="M 227.125 167.75 C 225.019531 166.273438 225.269531 166.238281 223.4375 168.457031 C 220.777344 171.6875 220.851562 171.679688 224.015625 174.511719 C 237.167969 186.296875 258.664062 192.785156 273 179.5625 C 256.820312 179.921875 240.304688 176.992188 227.125 167.75 Z M 227.125 167.75 " fill-opacity="1" fill-rule="nonzero"/><path fill="#df9b00" d="M 150.984375 174.507812 C 154.144531 171.675781 154.21875 171.683594 151.558594 168.457031 C 149.730469 166.238281 149.976562 166.273438 147.871094 167.75 C 134.695312 176.992188 118.179688 179.917969 101.996094 179.558594 C 116.332031 192.785156 137.832031 186.292969 150.984375 174.507812 Z M 150.984375 174.507812 " fill-opacity="1" fill-rule="nonzero"/><path fill="#df9b00" d="M 260.289062 139.917969 C 278.398438 140.519531 303.429688 133.714844 304.753906 112.226562 C 295.433594 120.941406 285.003906 127.867188 272.511719 131.019531 C 268.03125 133.230469 264.5 137.210938 260.289062 139.917969 Z M 260.289062 139.917969 " fill-opacity="1" fill-rule="nonzero"/><path fill="#df9b00" d="M 114.710938 139.917969 C 110.5 137.210938 106.96875 133.230469 102.488281 131.019531 C 89.996094 127.867188 79.566406 120.941406 70.246094 112.226562 C 71.570312 133.714844 96.597656 140.515625 114.710938 139.917969 Z M 114.710938 139.917969 " fill-opacity="1" fill-rule="nonzero"/><path fill="#df9b00" d="M 260.289062 139.917969 C 260.269531 139.871094 260.277344 139.894531 260.289062 139.917969 Z M 260.289062 139.917969 " fill-opacity="1" fill-rule="nonzero"/><path fill="#df9b00" d="M 114.710938 139.917969 C 114.71875 139.894531 114.730469 139.871094 114.710938 139.917969 Z M 114.710938 139.917969 " fill-opacity="1" fill-rule="nonzero"/><path fill="#df9b00" d="M 215.335938 181.53125 C 214.496094 183.90625 213.382812 191.851562 220.515625 201.222656 C 225.316406 207.53125 233.976562 212.195312 241.8125 208.460938 C 229.710938 202.691406 222.128906 192.636719 215.335938 181.53125 Z M 215.335938 181.53125 " fill-opacity="1" fill-rule="nonzero"/><path fill="#df9b00" d="M 154.488281 201.222656 C 161.621094 191.851562 160.503906 183.902344 159.664062 181.53125 C 152.875 192.636719 145.285156 202.691406 133.191406 208.460938 C 141.023438 212.195312 149.683594 207.53125 154.488281 201.222656 Z M 154.488281 201.222656 " fill-opacity="1" fill-rule="nonzero"/><g clip-path="url(#8a7d6a7134)"><path fill="#df9b00" d="M 276.917969 125.523438 C 291.589844 121.535156 307.382812 106.765625 307.640625 89.324219 C 303.226562 100.734375 295.085938 104.949219 286.453125 112 C 283.832031 116.863281 280.664062 121.511719 276.917969 125.523438 Z M 276.917969 125.523438 " fill-opacity="1" fill-rule="nonzero"/></g><g clip-path="url(#6f30107081)"><path fill="#df9b00" d="M 98.082031 125.523438 C 94.335938 121.511719 91.167969 116.863281 88.546875 112 C 79.914062 104.949219 71.773438 100.734375 67.359375 89.324219 C 67.617188 106.765625 83.40625 121.535156 98.082031 125.523438 Z M 98.082031 125.523438 " fill-opacity="1" fill-rule="nonzero"/></g><path fill="#df9b00" d="M 211.316406 190.457031 C 206.472656 201.226562 216.332031 216.59375 228.695312 214.933594 C 218.894531 209.347656 215.21875 199.914062 211.316406 190.457031 Z M 211.316406 190.457031 " fill-opacity="1" fill-rule="nonzero"/><path fill="#df9b00" d="M 163.683594 190.457031 C 159.785156 199.914062 156.109375 209.347656 146.308594 214.933594 C 158.667969 216.59375 168.53125 201.222656 163.683594 190.457031 Z M 163.683594 190.457031 " fill-opacity="1" fill-rule="nonzero"/></svg>